<svg width="288" height="100" viewBox="0 0 288 100" fill="none" xmlns="http://www.w3.org/2000/svg">
<path d="M65.0769 35.4615C61.9127 30.3319 57.1614 26.3746 51.5442 24.1903C45.9269 22.006 39.7503 21.714 33.952 23.3584C28.1537 25.0029 23.0501 28.4942 19.416 33.3023C15.7819 38.1105 13.8156 43.973 13.8156 50C13.8156 56.027 15.7819 61.8895 19.416 66.6976C23.0501 71.5058 28.1537 74.997 33.952 76.6415C39.7503 78.286 45.9269 77.994 51.5442 75.8097C57.1614 73.6253 61.9127 69.6681 65.0769 64.5385" stroke="#111111" stroke-width="15.2308"/>
<path d="M75.8077 38.9231H67.5C66.9265 38.9231 66.4615 39.388 66.4615 39.9616V60.0385C66.4615 60.612 66.9265 61.0769 67.5 61.0769H75.8077C76.3812 61.0769 76.8462 60.612 76.8462 60.0385V39.9616C76.8462 39.388 76.3812 38.9231 75.8077 38.9231Z" fill="#111111"/>
<path d="M129.455 74.9318C125.97 74.9318 122.977 74.1667 120.477 72.6364C117.992 71.1061 116.076 68.9924 114.727 66.2955C113.394 63.5833 112.727 60.4621 112.727 56.9318C112.727 53.3864 113.409 50.2576 114.773 47.5455C116.136 44.8182 118.061 42.697 120.545 41.1818C123.045 39.6515 126 38.8864 129.409 38.8864C132.242 38.8864 134.75 39.4091 136.932 40.4545C139.129 41.4848 140.879 42.947 142.182 44.8409C143.485 46.7197 144.227 48.9167 144.409 51.4318H136.545C136.227 49.75 135.47 48.3485 134.273 47.2273C133.091 46.0909 131.508 45.5227 129.523 45.5227C127.841 45.5227 126.364 45.9773 125.091 46.8864C123.818 47.7803 122.826 49.0682 122.114 50.75C121.417 52.4318 121.068 54.447 121.068 56.7955C121.068 59.1742 121.417 61.2197 122.114 62.9318C122.811 64.6288 123.788 65.9394 125.045 66.8636C126.318 67.7727 127.811 68.2273 129.523 68.2273C130.735 68.2273 131.818 68 132.773 67.5455C133.742 67.0758 134.553 66.4015 135.205 65.5227C135.856 64.6439 136.303 63.5758 136.545 62.3182H144.409C144.212 64.7879 143.485 66.9773 142.227 68.8864C140.97 70.7803 139.258 72.2652 137.091 73.3409C134.924 74.4015 132.379 74.9318 129.455 74.9318ZM149.265 74.25V39.3409H157.492V74.25H149.265ZM153.401 34.3864C152.098 34.3864 150.977 33.9545 150.037 33.0909C149.098 32.2121 148.628 31.1591 148.628 29.9318C148.628 28.6894 149.098 27.6364 150.037 26.7727C150.977 25.8939 152.098 25.4545 153.401 25.4545C154.719 25.4545 155.841 25.8939 156.765 26.7727C157.704 27.6364 158.174 28.6894 158.174 29.9318C158.174 31.1591 157.704 32.2121 156.765 33.0909C155.841 33.9545 154.719 34.3864 153.401 34.3864ZM172.28 53.7955V74.25H164.052V39.3409H171.916V45.2727H172.325C173.128 43.3182 174.408 41.7652 176.166 40.6136C177.939 39.4621 180.128 38.8864 182.734 38.8864C185.143 38.8864 187.242 39.4015 189.03 40.4318C190.833 41.4621 192.227 42.9545 193.211 44.9091C194.211 46.8636 194.704 49.2348 194.689 52.0227V74.25H186.461V53.2955C186.461 50.9621 185.855 49.1364 184.643 47.8182C183.446 46.5 181.787 45.8409 179.666 45.8409C178.227 45.8409 176.946 46.1591 175.825 46.7955C174.719 47.4167 173.848 48.3182 173.211 49.5C172.59 50.6818 172.28 52.1136 172.28 53.7955ZM216.38 74.9318C212.895 74.9318 209.902 74.1667 207.402 72.6364C204.917 71.1061 203.001 68.9924 201.652 66.2955C200.319 63.5833 199.652 60.4621 199.652 56.9318C199.652 53.3864 200.334 50.2576 201.698 47.5455C203.061 44.8182 204.986 42.697 207.47 41.1818C209.97 39.6515 212.925 38.8864 216.334 38.8864C219.167 38.8864 221.675 39.4091 223.857 40.4545C226.054 41.4848 227.804 42.947 229.107 44.8409C230.41 46.7197 231.152 48.9167 231.334 51.4318H223.47C223.152 49.75 222.395 48.3485 221.198 47.2273C220.016 46.0909 218.433 45.5227 216.448 45.5227C214.766 45.5227 213.289 45.9773 212.016 46.8864C210.743 47.7803 209.751 49.0682 209.039 50.75C208.342 52.4318 207.993 54.447 207.993 56.7955C207.993 59.1742 208.342 61.2197 209.039 62.9318C209.736 64.6288 210.713 65.9394 211.97 66.8636C213.243 67.7727 214.736 68.2273 216.448 68.2273C217.66 68.2273 218.743 68 219.698 67.5455C220.667 67.0758 221.478 66.4015 222.13 65.5227C222.781 64.6439 223.228 63.5758 223.47 62.3182H231.334C231.137 64.7879 230.41 66.9773 229.152 68.8864C227.895 70.7803 226.183 72.2652 224.016 73.3409C221.849 74.4015 219.304 74.9318 216.38 74.9318ZM244.417 53.7955V74.25H236.19V27.7045H244.235V45.2727H244.644C245.463 43.303 246.728 41.75 248.44 40.6136C250.167 39.4621 252.364 38.8864 255.031 38.8864C257.455 38.8864 259.569 39.3939 261.372 40.4091C263.175 41.4242 264.569 42.9091 265.553 44.8636C266.553 46.8182 267.053 49.2045 267.053 52.0227V74.25H258.826V53.2955C258.826 50.947 258.22 49.1212 257.008 47.8182C255.811 46.5 254.129 45.8409 251.963 45.8409C250.508 45.8409 249.205 46.1591 248.053 46.7955C246.917 47.4167 246.023 48.3182 245.372 49.5C244.735 50.6818 244.417 52.1136 244.417 53.7955Z" fill="#111111"/>
</svg>
